<svg xmlns="http://www.w3.org/2000/svg" xmlns:xlink="http://www.w3.org/1999/xlink" width="177" height="42" viewBox="0 0 177 42">
    <defs>
        <path id="a" d="M0 42h176.967V.805H0z"/>
    </defs>
    <g fill="none" fill-rule="evenodd">
        <path fill="#404041" d="M9.512 0v24.72L0 41.195h61.74l-5.85-10.129h-4.484l3.606 6.245H6.726l5.848-10.128h39.653V0H9.512zm3.883 23.3h34.95V3.882h-34.95V23.3z"/>
        <path fill="#4BAEE2" d="M13.395 23.299h34.949V3.883H13.395z"/>
        <path fill="#FEDD00" d="M30.87 9.04l.795 1.612 1.777.258-1.286 1.254.304 1.77-1.59-.835-1.59.835.303-1.77-1.286-1.255 1.778-.258zM37.021 10.125l.795 1.611 1.778.258-1.286 1.254.303 1.77-1.59-.836-1.59.836.304-1.77-1.286-1.254 1.777-.258zM19.308 13.248l.795 1.612 1.778.258-1.286 1.254.303 1.77-1.59-.835-1.59.835.304-1.77-1.286-1.255 1.777-.258zM42.431 13.248l.795 1.612 1.777.258-1.286 1.254.304 1.77-1.59-.835-1.59.835.303-1.77-1.286-1.255 1.778-.258zM24.718 10.125l.795 1.611 1.777.258-1.286 1.254.304 1.77-1.59-.836-1.59.836.303-1.77-1.286-1.254 1.778-.258z"/>
        <path fill="#404041" d="M63.764 17.899h3.74v.585H64.43v1.674h2.79v.562h-2.79v1.859h3.162v.614h-3.83zM68.523 21.424h1.985v-.55h-1.985zM71.654 17.899h.667v4.68h2.777v.614h-3.444zM76.036 18.64h.599v-.741h-.599v.74zm0 4.553h.599v-3.83h-.599v3.83z"/>
        <g transform="translate(0 -.805)">
            <path fill="#404041" d="M77.575 20.17h.526v-.614c0-.66.378-.897 1.014-.897.126 0 .223.008.304.015v.512c-.103-.008-.133-.008-.192-.008-.385 0-.527.096-.527.408v.584h.71v.489h-.71v3.339h-.6v-3.34h-.525v-.488zM80.669 21.777h2.303c-.036-.763-.43-1.229-1.118-1.229-.711 0-1.096.533-1.185 1.23m-.63.31c0-1.11.727-2.014 1.815-2.014 1.148 0 1.763.89 1.763 2.154h-2.962c.044.778.466 1.37 1.236 1.37.555 0 .926-.266 1.059-.785h.586c-.178.822-.778 1.29-1.645 1.29-1.17 0-1.851-.904-1.851-2.015"/>
            <mask id="b" fill="#fff">
                <use xlink:href="#a"/>
            </mask>
            <path fill="#404041" d="M84.592 23.998h.6v-5.294h-.6zM89.263 22.088c0-.844-.415-1.518-1.229-1.518-.814 0-1.237.674-1.237 1.518 0 .843.423 1.51 1.237 1.51.814 0 1.23-.667 1.23-1.51m-3.082 0c0-1.11.711-2.014 1.852-2.014 1.147 0 1.844.903 1.844 2.014 0 1.111-.697 2.015-1.844 2.015-1.14 0-1.852-.904-1.852-2.015M91.446 20.674h.014c.275-.363.66-.593 1.215-.593.8 0 1.29.437 1.29 1.23v2.687h-.601v-2.636c0-.495-.326-.777-.866-.777-.608 0-1.052.43-1.052 1.059v2.354h-.6V20.17h.6v.504zM97.776 21.94c0-.836-.355-1.355-1.17-1.355-.718 0-1.081.563-1.081 1.392 0 .837.378 1.385 1.089 1.385.88 0 1.162-.615 1.162-1.422m-2.747 2.274h.555c.059.422.459.585 1.05.585.706 0 1.098-.32 1.098-.986v-.54h-.015c-.281.362-.585.593-1.133.593-.993 0-1.673-.793-1.673-1.896 0-1.192.747-1.89 1.636-1.89.556 0 .912.216 1.17.579h.015v-.49h.6v3.623c0 1.007-.667 1.48-1.681 1.48-.993 0-1.556-.4-1.622-1.058M101.15 18.704h.666v4.68h2.777v.614h-3.443zM105.798 21.777h2.303c-.037-.763-.43-1.229-1.118-1.229-.711 0-1.096.533-1.185 1.23m-.63.31c0-1.11.727-2.014 1.815-2.014 1.148 0 1.762.89 1.762 2.154h-2.962c.045.778.467 1.37 1.236 1.37.556 0 .927-.266 1.06-.785h.585c-.178.822-.778 1.29-1.645 1.29-1.17 0-1.85-.904-1.85-2.015M112.061 22.584v-.652c-.199.126-.547.222-.874.28-.6.114-1.081.217-1.081.779 0 .512.4.623.793.623.799 0 1.162-.585 1.162-1.03m-.015.88h-.006c-.231.297-.623.609-1.275.609-.726 0-1.295-.341-1.295-1.067 0-.903.711-1.09 1.666-1.236.541-.082.918-.134.918-.548 0-.43-.31-.674-.859-.674-.623 0-.933.266-.955.844h-.577c.021-.741.51-1.296 1.524-1.296.815 0 1.415.303 1.415 1.215v1.82c0 .312.074.483.407.409h.023v.437a.842.842 0 0 1-.327.059c-.392 0-.599-.178-.659-.571M114.443 20.807h.015c.23-.371.63-.681 1.14-.681.112 0 .171.014.244.044v.578h-.02a.722.722 0 0 0-.268-.037c-.593 0-1.11.444-1.11 1.162v2.125h-.6V20.17h.6v.637zM117.353 20.674h.015c.273-.363.659-.593 1.214-.593.8 0 1.29.437 1.29 1.23v2.687h-.602v-2.636c0-.495-.325-.777-.867-.777-.607 0-1.05.43-1.05 1.059v2.354h-.6V20.17h.6v.504zM121.031 23.998h.6V20.17h-.6v3.828zm0-4.553h.6v-.741h-.6v.741zM123.415 20.674h.014c.275-.363.66-.593 1.215-.593.8 0 1.287.437 1.287 1.23v2.687h-.599v-2.636c0-.495-.325-.777-.866-.777-.606 0-1.051.43-1.051 1.059v2.354h-.6V20.17h.6v.504zM129.744 21.94c0-.836-.355-1.355-1.17-1.355-.72 0-1.081.563-1.081 1.392 0 .837.377 1.385 1.088 1.385.882 0 1.163-.615 1.163-1.422m-2.747 2.274h.555c.059.422.46.585 1.052.585.703 0 1.096-.32 1.096-.986v-.54h-.016c-.28.362-.585.593-1.133.593-.992 0-1.672-.793-1.672-1.896 0-1.192.747-1.89 1.636-1.89.556 0 .91.216 1.169.579h.016v-.49h.6v3.623c0 1.007-.667 1.48-1.682 1.48-.992 0-1.554-.4-1.621-1.058M133.132 23.998h.667v-5.294h-.667zM135.685 20.674h.016c.274-.363.659-.593 1.214-.593.8 0 1.29.437 1.29 1.23v2.687h-.602v-2.636c0-.495-.326-.777-.867-.777-.607 0-1.05.43-1.05 1.059v2.354h-.6V20.17h.6v.504zM141.667 21.236h1.393c.746 0 1.102-.377 1.102-.984 0-.638-.392-.97-1.067-.97h-1.428v1.954zM141 18.704h2.208c.554 0 .984.185 1.257.511.222.26.356.607.356 1.006 0 .971-.553 1.556-1.71 1.556h-1.444v2.221H141v-5.294zM146.344 20.807h.015c.23-.371.63-.681 1.14-.681.112 0 .171.014.244.044v.578h-.022a.719.719 0 0 0-.267-.037c-.592 0-1.11.444-1.11 1.162v2.125h-.6V20.17h.6v.637zM148.92 21.777h2.302c-.037-.763-.428-1.229-1.118-1.229-.71 0-1.096.533-1.185 1.23m-.629.31c0-1.11.726-2.014 1.814-2.014 1.148 0 1.762.89 1.762 2.154h-2.962c.045.778.468 1.37 1.236 1.37.556 0 .927-.266 1.06-.785h.585c-.178.822-.778 1.29-1.645 1.29-1.169 0-1.85-.904-1.85-2.015M152.355 20.17h.644l.793 2.429c.11.34.25.807.25.807h.016s.14-.474.252-.807l.806-2.43h.622l-1.377 3.829h-.666l-1.34-3.828zM156.87 21.777h2.302c-.036-.763-.429-1.229-1.118-1.229-.71 0-1.095.533-1.185 1.23m-.629.31c0-1.11.725-2.014 1.814-2.014 1.148 0 1.762.89 1.762 2.154h-2.962c.045.778.467 1.37 1.238 1.37.554 0 .925-.266 1.06-.785h.584c-.178.822-.778 1.29-1.644 1.29-1.17 0-1.852-.904-1.852-2.015M161.37 20.674h.014c.274-.363.66-.593 1.214-.593.801 0 1.29.437 1.29 1.23v2.687h-.6v-2.636c0-.495-.327-.777-.868-.777-.607 0-1.05.43-1.05 1.059v2.354h-.6V20.17h.6v.504zM164.728 20.17h.556v-1.207h.6v1.207h.74v.489h-.74v2.489c0 .266.14.355.386.355.117 0 .25-.03.317-.052h.024v.518a2.388 2.388 0 0 1-.482.052c-.488 0-.844-.201-.844-.741v-2.621h-.556v-.49zM167.616 23.998h.6V20.17h-.6v3.828zm0-4.553h.6v-.741h-.6v.741zM172.266 22.088c0-.844-.415-1.518-1.229-1.518-.815 0-1.238.674-1.238 1.518 0 .843.423 1.51 1.238 1.51.814 0 1.23-.667 1.23-1.51m-3.082 0c0-1.11.711-2.014 1.852-2.014 1.147 0 1.843.903 1.843 2.014 0 1.111-.696 2.015-1.843 2.015-1.14 0-1.852-.904-1.852-2.015M174.448 20.674h.015c.274-.363.66-.593 1.214-.593.8 0 1.29.437 1.29 1.23v2.687h-.6v-2.636c0-.495-.327-.777-.868-.777-.607 0-1.05.43-1.05 1.059v2.354h-.6V20.17h.6v.504zM66.845 30.78c0-.843-.415-1.518-1.23-1.518s-1.236.675-1.236 1.519c0 .843.42 1.51 1.236 1.51.815 0 1.23-.667 1.23-1.51m-3.081 0c0-1.111.71-2.014 1.85-2.014 1.149 0 1.845.903 1.845 2.014 0 1.11-.696 2.015-1.844 2.015-1.14 0-1.851-.904-1.851-2.015M68.109 28.862h.525v-.615c0-.659.378-.896 1.015-.896.126 0 .222.008.303.015v.512c-.103-.008-.133-.008-.192-.008-.385 0-.526.096-.526.408v.584h.71v.49h-.71v3.338h-.6v-3.339h-.525v-.489zM72.202 30.9h.652c.088.894.636 1.362 1.636 1.362.733 0 1.259-.334 1.259-.994 0-.724-.637-.896-1.585-1.102-.933-.208-1.733-.475-1.733-1.474 0-.874.726-1.4 1.8-1.4 1.325 0 1.873.674 2.007 1.652h-.63c-.096-.756-.585-1.133-1.363-1.133-.718 0-1.191.304-1.191.851 0 .6.592.778 1.384.934 1.029.206 1.97.458 1.97 1.651 0 .992-.807 1.548-1.948 1.548-1.488 0-2.2-.83-2.258-1.896M79.886 32.69v-.525h-.015c-.274.37-.6.615-1.155.615-.785 0-1.288-.474-1.288-1.267v-2.65h.599v2.635c0 .496.318.785.859.785.607 0 1-.459 1-1.066v-2.355h.6v3.828h-.6zM81.668 32.69h.6v-3.828h-.6v3.828zm0-4.554h.6v-.74h-.6v.74zM83.237 30.78c0-1.11.711-2.013 1.851-2.013.903 0 1.503.518 1.637 1.332h-.608c-.088-.518-.45-.837-1.029-.837-.815 0-1.236.675-1.236 1.519 0 .843.421 1.51 1.236 1.51.622 0 .993-.355 1.045-.948h.592c-.082.919-.68 1.453-1.637 1.453-1.14 0-1.85-.904-1.85-2.015M87.663 32.69h.6v-3.828h-.6v3.828zm0-4.554h.6v-.74h-.6v.74zM92.165 30.795c0-.89-.43-1.51-1.222-1.51-.725 0-1.096.652-1.096 1.51 0 .867.37 1.504 1.104 1.504.852 0 1.215-.637 1.215-1.504m-2.933-.008c0-1.273.733-2.014 1.68-2.014.541 0 .957.267 1.2.63h.016v-2.006h.599v5.294h-.6v-.467h-.014c-.29.37-.645.578-1.186.578-1.044 0-1.695-.784-1.695-2.015M94.325 30.47h2.303c-.036-.763-.43-1.23-1.118-1.23-.71 0-1.097.534-1.185 1.23m-.629.31c0-1.11.725-2.013 1.814-2.013 1.148 0 1.762.889 1.762 2.154H94.31c.044.778.466 1.37 1.237 1.37.555 0 .926-.266 1.058-.785h.587c-.178.822-.778 1.29-1.645 1.29-1.17 0-1.85-.904-1.85-2.015M99.773 32.69h.6v-3.828h-.6v3.828zm0-4.554h.6v-.74h-.6v.74zM102.157 29.365h.015c.274-.362.659-.592 1.214-.592.8 0 1.29.437 1.29 1.23v2.687h-.601v-2.636c0-.496-.326-.777-.867-.777-.607 0-1.051.43-1.051 1.06v2.353h-.6v-3.828h.6v.503zM107.471 27.396h3.738v.585h-3.072v1.674h2.792v.562h-2.792v1.86h3.162v.613h-3.828zM114.718 32.69v-.525h-.015c-.274.37-.6.615-1.155.615-.785 0-1.29-.474-1.29-1.267v-2.65h.6v2.635c0 .496.319.785.86.785.608 0 1-.459 1-1.066v-2.355h.6v3.828h-.6zM117.1 29.499h.015c.23-.371.63-.681 1.141-.681.111 0 .17.014.243.044v.578h-.022a.74.74 0 0 0-.267-.037c-.592 0-1.11.444-1.11 1.162v2.125h-.6v-3.828h.6v.637zM122.127 30.78c0-.843-.415-1.518-1.23-1.518-.814 0-1.237.675-1.237 1.519 0 .843.423 1.51 1.238 1.51.814 0 1.229-.667 1.229-1.51m-3.081 0c0-1.111.71-2.014 1.852-2.014 1.147 0 1.843.903 1.843 2.014 0 1.11-.696 2.015-1.843 2.015-1.141 0-1.852-.904-1.852-2.015M126.582 30.795c0-.858-.362-1.51-1.088-1.51-.838 0-1.222.68-1.222 1.51 0 .829.332 1.504 1.215 1.504.733 0 1.096-.637 1.096-1.504zm-2.873-1.933h.6v.54h.014c.29-.392.675-.63 1.23-.63.97 0 1.644.742 1.644 2.015 0 1.23-.63 2.015-1.666 2.015-.519 0-.89-.155-1.208-.563h-.014v1.682h-.6v-5.06zM128.58 30.47h2.303c-.037-.763-.43-1.23-1.118-1.23-.711 0-1.096.534-1.185 1.23m-.63.31c0-1.11.726-2.013 1.815-2.013 1.148 0 1.762.889 1.762 2.154h-2.962c.045.778.466 1.37 1.238 1.37.554 0 .924-.266 1.058-.785h.585c-.178.822-.778 1.29-1.643 1.29-1.172 0-1.852-.904-1.852-2.015M120.257 5.45h-3.271c-.66 0-1.194-.557-1.194-1.24 0-.683.535-1.238 1.195-1.238h4.95V.805h-4.95c-1.813 0-3.288 1.527-3.288 3.405 0 1.877 1.475 3.406 3.288 3.406h3.269c.66 0 1.198.556 1.198 1.24 0 .683-.537 1.24-1.197 1.24h-6.558v2.166h6.558c1.812 0 3.289-1.529 3.289-3.406 0-1.878-1.477-3.407-3.29-3.407M77.605.805H75.28v11.457h7.707v-2.167h-5.383zM88.16.805h-2.322v11.457h7.707v-2.167H88.16zM96.409 12.262h2.323V.805h-2.323zM125.802.805v11.457h8.477V10.095h-6.154V7.617h4.545V5.45h-4.545V2.972h6.154V.805zM63.764 12.262h8.477V10.095h-6.153V7.617h4.545V5.45h-4.545V2.972h6.153V.805h-8.477zM107.397 6.183h-2.963V2.856h2.963a1.665 1.665 0 0 1 0 3.327m0-5.378h-5.285v11.457h2.322V8.234h2.963a3.717 3.717 0 0 0 3.713-3.715 3.718 3.718 0 0 0-3.713-3.714" mask="url(#b)"/>
        </g>
    </g>
</svg>
